<?xml version="1.0" encoding="UTF-8" standalone="no"?>
<!DOCTYPE svg PUBLIC "-//W3C//DTD SVG 1.1//EN" "http://www.w3.org/Graphics/SVG/1.1/DTD/svg11.dtd">
<svg xmlns="http://www.w3.org/2000/svg" xmlns:xl="http://www.w3.org/1999/xlink" version="1.1" viewBox="694 323 23 28" width="23pt" height="28pt" xmlns:dc="http://purl.org/dc/elements/1.1/"><metadata> Produced by OmniGraffle 6.6.2 <dc:date>2018-03-23 05:56:17 +0000</dc:date></metadata><defs/><g stroke="none" stroke-opacity="1" stroke-dasharray="none" fill="none" fill-opacity="1"><title>AP view 2</title><rect fill="#f0f0f1" width="1366" height="1591"/><g><title>Body 1</title><path d="M 709.25127 347.50836 C 709.25127 347.69155 709.31594 347.8424 709.44164 347.96453 C 709.56736 348.08305 709.729 348.1441 709.92297 348.1441 L 710.59465 348.1441 C 710.77784 348.1441 710.93588 348.08305 711.0652 347.9717 C 711.1981 347.85676 711.26633 347.70232 711.26633 347.50836 L 711.26633 336.95174 C 711.26633 336.76855 711.1981 336.60691 711.0652 336.4776 C 710.93588 336.3447 710.77784 336.27646 710.59465 336.27646 L 709.92297 336.27646 C 709.7398 336.27646 709.58172 336.3447 709.45243 336.4776 C 709.31953 336.60691 709.25127 336.76855 709.25127 336.95174 Z M 706.2233 336.95174 C 706.2233 336.76855 706.16223 336.60691 706.02933 336.4776 C 705.89283 336.3447 705.7348 336.27646 705.5552 336.27646 L 704.8835 336.27646 C 704.7003 336.27646 704.54587 336.3447 704.42733 336.4776 C 704.3088 336.60691 704.24774 336.76855 704.24774 336.95174 L 704.24774 347.50836 C 704.24774 347.69155 704.3052 347.8424 704.42015 347.96453 C 704.5351 348.08305 704.68595 348.1441 704.8835 348.1441 L 705.5552 348.1441 C 705.7348 348.1441 705.89283 348.08305 706.02933 347.9717 C 706.16223 347.85676 706.2233 347.70232 706.2233 347.50836 Z M 702.73554 327.90371 C 704.38782 327.87857 706.05088 327.87857 707.7391 327.90371 C 707.7391 327.76722 707.74985 327.63434 707.775 327.50143 C 707.79655 327.36852 707.79655 327.2428 707.775 327.12786 L 707.775 326.87285 C 707.3727 326.75791 706.94527 326.69325 706.49987 326.68247 C 706.05088 326.6717 705.62703 326.6645 705.22833 326.6645 C 704.8045 326.6645 704.37345 326.6717 703.93165 326.68247 C 703.48984 326.69325 703.066 326.75791 702.6673 326.87285 L 702.6673 327.12786 C 702.6673 327.2428 702.67087 327.37213 702.68526 327.50862 C 702.69603 327.6487 702.714 327.778 702.73554 327.90371 M 701.18743 336.95174 C 701.18743 336.76855 701.11917 336.60691 700.9899 336.4776 C 700.85698 336.3447 700.6989 336.27646 700.51573 336.27646 L 699.84764 336.27646 C 699.66086 336.27646 699.51 336.3447 699.39146 336.4776 C 699.26935 336.60691 699.20827 336.76855 699.20827 336.95174 L 699.20827 347.50836 C 699.20827 347.69155 699.26935 347.8424 699.39146 347.96453 C 699.51 348.08305 699.66086 348.1441 699.84764 348.1441 L 700.51573 348.1441 C 700.6989 348.1441 700.85698 348.08305 700.9899 347.9717 C 701.11917 347.85676 701.18743 347.70232 701.18743 347.50836 Z M 705.22833 334.33323 C 706.7082 334.31168 708.18447 334.27576 709.66434 334.23265 C 711.14063 334.18596 712.6205 334.0746 714.10395 333.88784 L 714.10395 348.2806 C 714.10395 349.00259 713.84894 349.62758 713.34606 350.1448 C 712.8396 350.66922 712.2254 350.92785 711.5034 350.92785 L 698.9353 350.92785 C 698.2133 350.92785 697.5919 350.67283 697.0675 350.152 C 696.54666 349.64194 696.28805 349.01695 696.28805 348.2806 L 696.28805 333.88784 C 697.6961 334.0746 699.09693 334.19315 700.4834 334.25062 C 701.8699 334.3045 703.26714 334.33323 704.67877 334.33323 Z M 716.4387 330.12351 L 716.4387 331.30884 C 716.01486 331.53874 715.31084 331.72193 714.32307 331.8692 C 713.3389 332.01285 712.27567 332.12063 711.13345 332.19246 C 709.9948 332.27148 708.8849 332.31459 707.8073 332.32175 C 706.72975 332.33253 705.8713 332.33973 705.22833 332.33973 C 704.59615 332.33973 703.7377 332.33253 702.64933 332.32175 C 701.5574 332.31459 700.4439 332.27148 699.30166 332.19246 C 698.16303 332.12063 697.107 332.01285 696.1336 331.87636 C 695.1566 331.73629 694.45977 331.54952 694.03592 331.30884 C 694.01077 331.12565 694 330.9281 694 330.71259 L 694 330.12351 L 694 329.50213 C 694 329.29739 694.01077 329.08904 694.03592 328.88072 C 694.3197 328.72628 694.72917 328.58618 695.25717 328.47843 C 695.7816 328.37066 696.34193 328.28086 696.9382 328.21261 C 697.53445 328.14437 698.1235 328.0941 698.70183 328.05818 C 699.2837 328.02584 699.7327 327.99351 700.05237 327.97196 C 699.95898 327.03448 700.02724 326.30174 700.24994 325.77013 C 700.47624 325.24571 700.81387 324.8506 701.27364 324.59558 C 701.7298 324.33696 702.29372 324.16813 702.96543 324.0927 C 703.6371 324.02086 704.38782 323.98495 705.22833 323.98495 C 705.8605 323.98495 706.4855 323.9993 707.1105 324.03522 C 707.7355 324.07117 708.29224 324.18969 708.7879 324.38365 C 709.28 324.58839 709.67152 324.90087 709.96608 325.32474 C 710.257 325.74858 710.4043 326.34843 710.4043 327.12786 L 710.4043 327.54093 C 710.4043 327.68103 710.38992 327.82469 710.37195 327.97196 C 710.7024 327.99351 711.155 328.02584 711.7261 328.05818 C 712.3008 328.0941 712.8899 328.14437 713.49333 328.21261 C 714.0932 328.28086 714.6643 328.37066 715.19948 328.47843 C 715.74187 328.58618 716.15494 328.72628 716.4387 328.88072 Z" fill="#666767"/></g></g></svg>
